<svg width="56" height="16" viewBox="0 0 56 16" fill="none" xmlns="http://www.w3.org/2000/svg">
<g clip-path="url(#clip0_20_62891)">
<path d="M15.9802 1.8996L7.91333 0L6.00862 7.18542L14.0755 9.08502L15.9802 1.8996Z" fill="#CBADFB"/>
<path d="M12.0409 10.0694L6.72534 11.0247L7.73185 16.0002L13.0475 15.0449L12.0409 10.0694Z" fill="#FBADAD"/>
<path d="M3.6972 2.78977L0.973633 3.27954L1.489 5.82897L4.21257 5.33919L3.6972 2.78977Z" fill="#D9FBAD"/>
<path d="M5.99351 1.4036L3.08691 1.34937L3.06922 2.1915L5.97582 2.24574L5.99351 1.4036Z" fill="#F0ADFB"/>
<path d="M5.74998 13.1833L2.68042 13.3784L2.35094 8.77312L5.4205 8.57803L5.74998 13.1833Z" fill="#ADFBF6"/>
<path d="M19.2007 2.48223H24.3024C25.5733 2.48223 26.5896 2.83967 27.3511 3.55454C28.1229 4.26428 28.5088 5.21315 28.5088 6.4012C28.5088 7.5841 28.1229 8.5381 27.3511 9.2633C26.5742 9.97815 25.5579 10.3356 24.3024 10.3356H21.7554V14H19.2007V2.48223ZM21.7554 8.1524H23.9551C25.19 8.1524 25.8075 7.57895 25.8075 6.43205C25.8075 5.31605 25.19 4.75801 23.9551 4.75801H21.7554V8.1524ZM33.0864 14.1543C31.8103 14.1543 30.8095 13.8225 30.084 13.1591C29.3482 12.4854 28.9725 11.5905 28.9571 10.4744H31.3806C31.3755 10.9733 31.5273 11.3668 31.836 11.6548C32.1499 11.9428 32.5667 12.0868 33.0864 12.0868C33.6163 12.0868 34.0383 11.9479 34.3521 11.6702C34.666 11.3873 34.8229 11.0093 34.8229 10.5362C34.8229 10.0939 34.6763 9.74415 34.383 9.487C34.0897 9.22985 33.6987 9.1013 33.2098 9.1013H31.9286V7.27295H33.04C33.5443 7.27295 33.9379 7.14435 34.2209 6.8872C34.5039 6.63005 34.6454 6.28805 34.6454 5.8612C34.6454 5.44975 34.5039 5.12575 34.2209 4.88916C33.9431 4.65258 33.5751 4.53429 33.1172 4.53429C32.6181 4.53429 32.2193 4.67315 31.9209 4.95087C31.6276 5.2286 31.4784 5.6066 31.4732 6.0849H29.0343C29.0497 4.97916 29.4408 4.10485 30.2074 3.46197C30.9793 2.79852 31.9801 2.4668 33.2098 2.4668C34.3676 2.4668 35.3118 2.74709 36.0424 3.30768C36.7679 3.86312 37.1307 4.614 37.1307 5.5603C37.1307 6.1312 36.9892 6.64035 36.7062 7.0878C36.4283 7.5301 36.0424 7.84895 35.5484 8.0444V8.1524C36.1041 8.3324 36.5364 8.65385 36.8451 9.1167C37.1539 9.5796 37.3082 10.1221 37.3082 10.7444C37.3082 11.7628 36.912 12.5908 36.1196 13.2285C35.3478 13.8457 34.3367 14.1543 33.0864 14.1543ZM42.3179 2.4668C43.6351 2.4668 44.672 2.97853 45.4283 4.00199C46.2002 5.0306 46.5861 6.4578 46.5861 8.28355C46.5861 10.135 46.195 11.5725 45.4129 12.5959C44.6411 13.5937 43.5991 14.0925 42.287 14.0925C40.9595 14.0925 39.9099 13.5782 39.138 12.5496C38.3713 11.5313 37.988 10.099 37.988 8.2527C37.988 6.39605 38.3816 4.96887 39.1689 3.97113C39.9613 2.96824 41.011 2.4668 42.3179 2.4668ZM42.3025 4.54972C41.6593 4.54972 41.1962 4.85058 40.9132 5.4523C40.6354 6.05405 40.4964 6.9592 40.4964 8.16785V8.18325L43.9002 6.27775C43.6635 5.12575 43.1309 4.54972 42.3025 4.54972ZM42.2716 11.9942C42.9148 11.9942 43.3753 11.6933 43.6531 11.0916C43.931 10.4847 44.07 9.57445 44.07 8.3607V8.32985L40.6739 10.2584C40.9106 11.4156 41.4432 11.9942 42.2716 11.9942ZM49.1029 6.5709H47.1579V2.60566H55.8178V4.34914C54.7062 5.8046 53.7263 7.42465 52.8769 9.2093C52.0435 10.9527 51.5057 12.5496 51.2641 14H48.6706C48.8816 12.6062 49.373 11.0633 50.1448 9.3713C50.9012 7.6998 51.8273 6.1466 52.9234 4.71172H49.1029V6.5709Z" fill="#E4E4E4"/>
</g>
<defs>
<clipPath id="clip0_20_62891">
<rect width="55.0262" height="16" fill="white" transform="translate(0.973633)"/>
</clipPath>
</defs>
</svg>
